<svg id="Layer_1" data-name="Layer 1" xmlns="http://www.w3.org/2000/svg" xmlns:xlink="http://www.w3.org/1999/xlink" viewBox="0 0 715.01 405.83"><defs><style>.cls-1{fill:url(#linear-gradient);}.cls-2{fill:url(#linear-gradient-2);}.cls-3{fill:url(#linear-gradient-3);}.cls-4{fill:url(#linear-gradient-4);}.cls-5{fill:url(#linear-gradient-5);}</style><linearGradient id="linear-gradient" x1="402.7" y1="161.72" x2="371.52" y2="180.62" gradientUnits="userSpaceOnUse"><stop offset="0.09" stop-color="#e5bf68"/><stop offset="0.26" stop-color="#e5bf68"/><stop offset="0.42" stop-color="#f9f1e5"/><stop offset="0.58" stop-color="#e5bf68"/><stop offset="0.71" stop-color="#ab742a"/><stop offset="1" stop-color="#f9f1e5"/></linearGradient><linearGradient id="linear-gradient-2" x1="382.37" y1="159.1" x2="355.44" y2="199.26" xlink:href="#linear-gradient"/><linearGradient id="linear-gradient-3" x1="439.76" y1="111.49" x2="303.8" y2="157.51" gradientUnits="userSpaceOnUse"><stop offset="0.09" stop-color="#e5bf68"/><stop offset="0.26" stop-color="#e5bf68"/><stop offset="0.36" stop-color="#f9f1e5"/><stop offset="0.49" stop-color="#e5bf68"/><stop offset="0.74" stop-color="#ab742a"/><stop offset="1" stop-color="#f9f1e5"/></linearGradient><linearGradient id="linear-gradient-4" x1="400.55" y1="132.36" x2="581.01" y2="238.17" xlink:href="#linear-gradient"/><linearGradient id="linear-gradient-5" x1="443.61" y1="324.59" x2="39.72" y2="127.61" xlink:href="#linear-gradient"/></defs><path d="M400.09,210.09a43.56,43.56,0,0,1-21.81-11.7c-12-11.75-16.73-27.1-13.78-44.39,3.16-18.5,13.73-33.47,31.42-44.47L420,136.36c-12.19,15.55-12.64,29.12-1.48,45.37l25,36.39Z"/><path d="M375.69,212.57c-.49-.07-.92-.11-1.31-.16a32.66,32.66,0,0,1-5.69-1.06c-6.73-1.95-18.76-7.78-23.68-24.93-6.13-21.37,4.19-45.81,25.07-59.44l25.32,25.37a34.12,34.12,0,0,0-5.33,15.8c-.92,8.74.15,11.92,2.45,14.73l29.86,36.54Z"/><path d="M330.12,195.5l-3.35-12.11a83.12,83.12,0,0,1-2.38-12l-25.29-6q.09-3,.33-5.88l-3.76,2.31,4.95-38a19.64,19.64,0,0,1,4.68-10.44C327.5,88,355.16,74.82,387.51,74.06l2,0a58,58,0,0,1,23.85,4.62,28.17,28.17,0,0,1,9.22,6.24,55.19,55.19,0,0,1,8.09,1.49,27,27,0,0,1,20.19,25.51c.39,10.19-4.05,19.37-12.51,25.82l-22.37,17-4.26-17.83c-9.55,2.26-18.55,6.74-27.46,13.64-11.17,8.65-17.95,18.44-20.72,29.91-.18.75-.39,1.54-.62,2.32l-4.24,15.51Z"/><path d="M339.2,248.08l26-28c11.71-38.23,49.87-55.6,55.47-58L527.8,112l1.21-.37c22.3-6.89,99-54.5,145.19-84.81L715,0,701.88,47c-11.49,41.17-36.84,72.87-67.59,97.19L623.5,172c-7.93,20.37-47.71,53.53-59.71,63.21L561.62,237,559,238a135.18,135.18,0,0,1-27.29,7.22l3.57,13.86-45.93,26.37,5.24,3.49-61.91,18c1.2,1.65,2.42,3.29,3.64,4.89l11.33,14.87L339.2,405.83Z"/><path d="M267.34,326.71l11.33-14.87c1.22-1.6,2.44-3.24,3.63-4.89l-61.91-18,5.25-3.5-45.93-26.37,3.57-13.86A135.46,135.46,0,0,1,156,238l-2.58-1-2.17-1.74c-12-9.68-51.79-42.84-59.71-63.21l-10.8-27.77C50,119.91,24.63,88.21,13.13,47L0,0,40.81,26.82C87,57.14,163.72,104.74,186,111.63l1.22.37,107.12,50.16c5.61,2.37,43.77,19.74,55.48,58l26,28V405.83Z"/><path class="cls-1" d="M401.54,129.57c-12,7.48-20.59,17.61-23.05,32-1.83,10.75.57,20.39,8.56,28.24a25.49,25.49,0,0,0,12.32,6.76C383.63,173.67,384.43,151.39,401.54,129.57Z"/><path class="cls-2" d="M374.29,199c-7.19-8.81-7.5-18.42-6.48-28.21A52.68,52.68,0,0,1,376,146.82c-12.73,8.31-21.67,24.42-17.48,39.06,1.69,5.88,4.92,10.58,11.18,12.4A39.24,39.24,0,0,0,374.29,199Z"/><path class="cls-3" d="M421.84,108.56c-3.6-1-7.44-1.16-11.18-1.57a43.87,43.87,0,0,0-4.73,0c.79-4.06.11-5.25-4-7-5.77-2.54-11.91-3.2-18.07-3C356,97.52,333.28,109.1,315,129.92a1.27,1.27,0,0,0-.3.74c9.21-5.65,18.65-10.77,29.28-13.54-20,12.12-30.05,29.95-30.65,53.23,6.12-12.87,15-23,28.22-29.8-3.72,14.35-5.1,28.38-1.21,42.47l.7.06c.22-.79.46-1.58.66-2.39,4-16.79,13.89-29.7,27.29-40.08,11.05-8.56,23.31-14.78,37.08-17.57a50.89,50.89,0,0,1,11-.74c3.78.06,5.17,1.5,6.09,5.35,3.58-2.73,5.49-6.24,5.32-10.56A8.71,8.71,0,0,0,421.84,108.56Zm-41.59-3.27c4.82-1.81,9.57-2.25,14.27-.05C389.83,108.53,385.07,107.71,380.25,105.29Z"/><path class="cls-4" d="M357.51,252.22V366.77l64.28-46.88S386,273,387,252.22c0,0,15.95,30,26.59,38.18l38.18-11.11s-50.75-33.84-55.1-47.37c0,0,41.57,36.73,73.95,40.12l55.59-31.91s-86-1.45-113.59-18.36c0,0,93.29,14.5,139.69-3.87,0,0,47.37-38.18,54.13-55.58,0,0-100,42.05-174.49,37.7,0,0,214.13-24.17,252.31-161,0,0-117,76.85-149.84,87L428.08,175.85s-38.19,15.21-46.41,50.38Z"/><path class="cls-5" d="M357.51,252.22V366.77l-64.29-46.88S329,273,328,252.22c0,0-15.95,30-26.58,38.18l-38.19-11.11s50.76-33.84,55.11-47.37c0,0-41.57,36.73-74,40.12l-55.58-31.91s86-1.45,113.58-18.36c0,0-93.28,14.5-139.68-3.87,0,0-47.37-38.18-54.14-55.58,0,0,100.05,42.05,174.49,37.7,0,0-214.12-24.17-252.31-161,0,0,117,76.85,149.84,87l106.34,49.79s38.18,15.21,46.4,50.38Z"/></svg>